<svg width="31" height="33" viewBox="0 0 31 33" fill="none" xmlns="http://www.w3.org/2000/svg">
<path d="M30.3542 30.562H25.0084V24.8714C25.0084 24.4916 24.7192 24.1839 24.3626 24.1839H21.3667C21.0101 24.1839 20.7209 24.4916 20.7209 24.8714V30.562H19.0168V21.6822C19.0168 21.3025 18.7276 20.9947 18.371 20.9947H15.3752C15.0185 20.9947 14.7293 21.3025 14.7293 21.6822V30.562H13.0252V18.7589C13.0252 18.3792 12.736 18.0714 12.3793 18.0714H9.63325C9.27656 18.0714 8.98742 18.3792 8.98742 18.7589V30.562H7.28332V13.4439C7.28332 13.0642 6.99418 12.7564 6.63749 12.7564H3.64166C3.28497 12.7564 2.99583 13.0642 2.99583 13.4439V30.562H1.29167V1.75052C1.29167 1.37081 1.00253 1.06302 0.645833 1.06302C0.28914 1.06302 0 1.37081 0 1.75052V31.2495C0 31.6292 0.28914 31.937 0.645833 31.937H3.64166H6.63749H9.63325H12.3794H15.3752H18.371H21.3668H24.3626H30.3542C30.7108 31.937 31 31.6292 31 31.2495C31 30.8698 30.7108 30.562 30.3542 30.562ZM5.99165 30.562H4.28749V14.1314H5.99165V30.562ZM11.7336 30.562H10.2791V19.4464H11.7336V30.562ZM17.7252 30.562H16.021V22.3697H17.7252V30.562ZM23.7167 30.562H22.0126V25.5589H23.7167V30.562Z" fill="#0C8CE9"/>
<path d="M25.5922 19.7831C25.5858 19.7443 25.5771 19.7061 25.5658 19.6687L24.8946 17.0512C24.8088 16.7161 24.5484 16.5032 24.2835 16.5307C24.2492 16.5343 24.2148 16.5419 24.1807 16.5538C23.8834 16.6575 23.721 17.0482 23.818 17.4266L24.0873 18.4769L8.15133 7.94209C8.04865 7.87417 7.93862 7.84809 7.83357 7.85899C7.65002 7.87804 7.48187 8.01005 7.39586 8.22958C7.26062 8.57479 7.37963 9.00576 7.66162 9.19211L23.5353 19.6859L22.7106 19.9773C22.4136 20.0823 22.2524 20.4737 22.3504 20.8518C22.4484 21.2298 22.7688 21.4511 23.0656 21.3462L25.2166 20.586C25.4657 20.498 25.6188 20.2082 25.6038 19.8938C25.6038 19.8914 25.6036 19.889 25.6035 19.8867C25.6026 19.8708 25.6015 19.855 25.5997 19.8391C25.598 19.822 25.5957 19.8052 25.593 19.7883L25.5922 19.7831Z" fill="#0C8CE9"/>
</svg>
