<svg width="31" height="31" viewBox="0 0 31 31" fill="none" xmlns="http://www.w3.org/2000/svg">
<path d="M31 6.71667C31 6.665 31 6.61333 30.9483 6.56167V6.51C30.8967 6.45833 30.8967 6.40667 30.845 6.355L24.645 0.155C24.5933 0.103333 24.5417 0.103333 24.49 0.0516667H24.4383C24.3867 0.0516667 24.335 0 24.2833 0H0.516667C0.206667 0 0 0.206667 0 0.516667V4.66667C0 4.94281 0.223858 5.16667 0.5 5.16667H0.533333C0.809475 5.16667 1.03333 4.94281 1.03333 4.66667V1.03333H23.7667V6.71667C23.7667 7.02667 23.9733 7.23333 24.2833 7.23333H29.9667V16.0333C29.9667 16.3095 30.1905 16.5333 30.4667 16.5333H30.5C30.7761 16.5333 31 16.3095 31 16.0333V6.71667ZM24.8 6.2V1.75667L29.2433 6.2H24.8Z" fill="#0C8CE9"/>
<path d="M30.4834 21.7H29.0368C28.9851 21.6483 28.9851 21.545 28.9334 21.4933L29.9668 20.5633C30.0701 20.46 30.1218 20.3567 30.1218 20.2017C30.1218 20.0467 30.0701 19.9433 29.9668 19.84L27.7968 17.67C27.5901 17.4633 27.2801 17.4633 27.0734 17.67L26.0918 18.6517C25.9884 18.6 25.9368 18.6 25.8851 18.5483V17.05C25.8851 16.74 25.6784 16.5333 25.3684 16.5333H22.2684C21.9584 16.5333 21.7518 16.74 21.7518 17.05V18.445C21.7001 18.4967 21.5968 18.4967 21.5451 18.5483L20.5634 17.5667C20.3568 17.36 20.0468 17.36 19.8401 17.5667L17.6701 19.7367C17.5668 19.84 17.5151 19.9433 17.5151 20.0983C17.5151 20.2533 17.5668 20.3567 17.6701 20.46L18.6518 21.4417C18.6001 21.545 18.6001 21.5967 18.5484 21.6483H17.0501C16.7401 21.6483 16.5334 21.855 16.5334 22.165V25.265C16.5334 25.575 16.7401 25.7817 17.0501 25.7817H18.4968C18.5484 25.8333 18.5484 25.9367 18.6001 25.9883L17.6184 26.97C17.5151 27.0733 17.4634 27.1767 17.4634 27.3317C17.4634 27.4867 17.5151 27.59 17.6184 27.6933L19.7884 29.8633C19.9951 30.07 20.3051 30.07 20.5118 29.8633L21.4934 28.8817C21.5968 28.9333 21.6484 28.9333 21.7001 28.985V30.4833C21.7001 30.7933 21.9068 31 22.2168 31H25.3168C25.6268 31 25.8334 30.7933 25.8334 30.4833V29.0367C25.8851 28.985 25.9884 28.985 26.0401 28.9333L27.0218 29.915C27.2284 30.1217 27.5384 30.1217 27.7451 29.915L29.9151 27.745C30.0184 27.6417 30.0701 27.5383 30.0701 27.3833C30.0701 27.2283 30.0184 27.125 29.9151 27.0217L28.9334 26.04C28.9851 25.9883 28.9851 25.885 29.0368 25.8333H30.4834C30.7934 25.8333 31.0001 25.6267 31.0001 25.3167V22.2167C31.0001 21.9067 30.7934 21.7 30.4834 21.7ZM29.9668 24.8H28.6751C28.4168 24.8 28.2101 25.0067 28.1584 25.2133C28.1584 25.3167 27.9518 25.73 27.9001 25.8333C27.8484 25.9367 27.7968 26.04 27.7968 26.1433C27.7968 26.2983 27.8484 26.4017 27.9518 26.505L28.8301 27.3833L27.3834 28.83L26.5051 27.9517C26.4018 27.8483 26.2984 27.7967 26.1434 27.7967C25.9884 27.7967 25.9368 27.8483 25.8334 27.9C25.7301 27.9517 25.3168 28.1067 25.2134 28.1583C24.9551 28.21 24.8001 28.4167 24.8001 28.675V29.9667H22.7334V28.675C22.7334 28.52 22.6818 28.4167 22.5784 28.3133C22.4751 28.1583 21.5968 27.7967 21.3901 27.7967C21.2351 27.7967 21.1318 27.8483 21.0284 27.9517L20.1501 28.83L18.7034 27.3833L19.5818 26.505C19.6851 26.4017 19.7368 26.2983 19.7368 26.1433C19.7368 26.04 19.6851 25.9367 19.6334 25.8333C19.5818 25.73 19.4268 25.3167 19.3751 25.2133C19.3234 24.955 19.1168 24.8 18.8584 24.8H17.5668V22.7333H18.8584C19.0134 22.7333 19.1168 22.6817 19.2201 22.5783C19.3751 22.475 19.7368 21.5967 19.7368 21.39C19.7368 21.235 19.6851 21.1317 19.5818 21.0283L18.7034 20.15L20.1501 18.7033L21.0284 19.5817C21.1318 19.685 21.2351 19.7367 21.3901 19.7367C21.5451 19.7367 21.5968 19.685 21.7001 19.6333C21.8034 19.5817 22.2168 19.4267 22.3201 19.375C22.5784 19.3233 22.7334 19.1167 22.7334 18.8583V17.5667H24.8001V18.8583C24.8001 19.0133 24.8518 19.1167 24.9551 19.22C25.0584 19.375 25.9368 19.7367 26.1434 19.7367C26.2984 19.7367 26.4018 19.685 26.5051 19.5817L27.3834 18.7033L28.8301 20.15L27.9518 21.0283C27.8484 21.1317 27.7968 21.235 27.7968 21.39C27.7968 21.4933 27.8484 21.5967 27.9001 21.7C27.9518 21.8033 28.1068 22.2167 28.1584 22.32C28.2101 22.5783 28.4168 22.7333 28.6751 22.7333H29.9668V24.8Z" fill="#0C8CE9"/>
<path d="M23.7666 21.7C22.63 21.7 21.7 22.63 21.7 23.7667C21.7 24.9033 22.63 25.8333 23.7666 25.8333C24.9033 25.8333 25.8333 24.9033 25.8333 23.7667C25.8333 22.63 24.9033 21.7 23.7666 21.7ZM23.7666 24.8C23.1983 24.8 22.7333 24.335 22.7333 23.7667C22.7333 23.1983 23.1983 22.7333 23.7666 22.7333C24.335 22.7333 24.8 23.1983 24.8 23.7667C24.8 24.335 24.335 24.8 23.7666 24.8Z" fill="#0C8CE9"/>
<path d="M12.865 13.175L10.7984 9.04167C10.6434 8.68 10.0234 8.68 9.86835 9.04167L7.80169 13.175C7.75011 13.2969 7.74991 13.375 7.75002 13.5883V30.5C7.75002 30.7761 7.97388 31 8.25002 31H8.28335C8.55949 31 8.78335 30.7761 8.78335 30.5V13.95H9.81669V30.5C9.81669 30.7761 10.0405 31 10.3167 31H10.35C10.6262 31 10.85 30.7761 10.85 30.5V13.95H11.8834V30.5C11.8834 30.7761 12.1072 31 12.3834 31H12.4167C12.6928 31 12.9167 30.7761 12.9167 30.5V13.485C12.9167 13.3817 12.9167 13.2783 12.865 13.175ZM9.09335 12.9167L10.3334 10.4367L11.5734 12.9167H9.09335Z" fill="#0C8CE9"/>
<path d="M5.68333 6.71667H0.516667C0.206667 6.71667 0 6.92334 0 7.23334V30.5C0 30.7761 0.223858 31 0.5 31H0.533333C0.809475 31 1.03333 30.7761 1.03333 30.5V29.45H3.11667C3.39281 29.45 3.61667 29.2262 3.61667 28.95V28.9167C3.61667 28.6405 3.39281 28.4167 3.11667 28.4167H1.03333V24.8H3.11667C3.39281 24.8 3.61667 24.5761 3.61667 24.3V24.2667C3.61667 23.9905 3.39281 23.7667 3.11667 23.7667H1.03333V19.6333H3.11667C3.39281 19.6333 3.61667 19.4095 3.61667 19.1333V19.1C3.61667 18.8239 3.39281 18.6 3.11667 18.6H1.03333V14.4667H3.11667C3.39281 14.4667 3.61667 14.2428 3.61667 13.9667V13.9333C3.61667 13.6572 3.39281 13.4333 3.11667 13.4333H1.03333V10.3333H3.11667C3.39281 10.3333 3.61667 10.1095 3.61667 9.83334V9.80001C3.61667 9.52387 3.39281 9.30001 3.11667 9.30001H1.03333V7.75001H5.16667V31H6.2V7.23334C6.2 6.92334 5.99333 6.71667 5.68333 6.71667Z" fill="#0C8CE9"/>
<path d="M8.28325 2.58334H3.08325C2.80711 2.58334 2.58325 2.8072 2.58325 3.08334V3.11668C2.58325 3.39282 2.80711 3.61668 3.08325 3.61668H8.28325C8.55939 3.61668 8.78325 3.39282 8.78325 3.11668V3.08334C8.78325 2.8072 8.55939 2.58334 8.28325 2.58334Z" fill="#0C8CE9"/>
<path d="M11.3833 2.58334H10.3167C10.0405 2.58334 9.81665 2.8072 9.81665 3.08334V3.11668C9.81665 3.39282 10.0405 3.61668 10.3167 3.61668H11.3833C11.6595 3.61668 11.8833 3.39282 11.8833 3.11668V3.08334C11.8833 2.8072 11.6595 2.58334 11.3833 2.58334Z" fill="#0C8CE9"/>
<path d="M11.3832 4.64999H7.21655C6.94041 4.64999 6.71655 4.87385 6.71655 5.14999V5.18333C6.71655 5.45947 6.94041 5.68333 7.21655 5.68333H11.3832C11.6594 5.68333 11.8832 5.45947 11.8832 5.18333V5.14999C11.8832 4.87385 11.6594 4.64999 11.3832 4.64999Z" fill="#0C8CE9"/>
<path d="M27.9166 8.78333H18.5833C18.3071 8.78333 18.0833 9.00718 18.0833 9.28333V9.31666C18.0833 9.5928 18.3071 9.81666 18.5833 9.81666H27.9166C28.1927 9.81666 28.4166 9.5928 28.4166 9.31666V9.28333C28.4166 9.00718 28.1927 8.78333 27.9166 8.78333Z" fill="#0C8CE9"/>
<path d="M23.7834 11.3667H15.4834C15.2073 11.3667 14.9834 11.5905 14.9834 11.8667V11.9C14.9834 12.1761 15.2073 12.4 15.4834 12.4H23.7834C24.0595 12.4 24.2834 12.1761 24.2834 11.9V11.8667C24.2834 11.5905 24.0595 11.3667 23.7834 11.3667Z" fill="#0C8CE9"/>
<path d="M27.9167 13.95H15.4834C15.2073 13.95 14.9834 14.1739 14.9834 14.45V14.4833C14.9834 14.7595 15.2073 14.9833 15.4834 14.9833H27.9167C28.1929 14.9833 28.4167 14.7595 28.4167 14.4833V14.45C28.4167 14.1739 28.1929 13.95 27.9167 13.95Z" fill="#0C8CE9"/>
<path d="M17.5834 16.0167H15.4834C15.2073 16.0167 14.9834 16.2405 14.9834 16.5167V16.55C14.9834 16.8261 15.2073 17.05 15.4834 17.05H17.5834C17.8595 17.05 18.0834 16.8261 18.0834 16.55V16.5167C18.0834 16.2405 17.8595 16.0167 17.5834 16.0167Z" fill="#0C8CE9"/>
<path d="M27.9167 11.3667H25.8167C25.5405 11.3667 25.3167 11.5905 25.3167 11.8667V11.9C25.3167 12.1761 25.5405 12.4 25.8167 12.4H27.9167C28.1928 12.4 28.4167 12.1761 28.4167 11.9V11.8667C28.4167 11.5905 28.1928 11.3667 27.9167 11.3667Z" fill="#0C8CE9"/>
</svg>
