<svg width="41" height="30" viewBox="0 0 41 30" fill="none" xmlns="http://www.w3.org/2000/svg">
<path d="M37.4228 0H3.68934C1.96167 0 0.556152 1.05404 0.556152 2.34981V4.75274C0.556152 6.04841 1.96167 7.10255 3.68934 7.10255H37.423C39.1505 7.10255 40.5562 6.04851 40.5562 4.75274V2.34981C40.556 1.05404 39.1505 0 37.4228 0Z" fill="#0C8CE9"/>
<path d="M37.4228 11.4488H3.68934C1.96167 11.4488 0.556152 12.5028 0.556152 13.7984V16.2013C0.556152 17.497 1.96167 18.5511 3.68934 18.5511H37.423C39.1505 18.5511 40.5562 17.4971 40.5562 16.2013V13.7984C40.556 12.5028 39.1505 11.4488 37.4228 11.4488Z" fill="#0C8CE9"/>
<path d="M37.4228 22.8975H3.68934C1.96167 22.8975 0.556152 23.9515 0.556152 25.2473V27.6502C0.556152 28.9459 1.96167 29.9999 3.68934 29.9999H37.423C39.1505 29.9999 40.556 28.9459 40.556 27.6501V25.2472C40.556 23.9515 39.1505 22.8975 37.4228 22.8975Z" fill="#0C8CE9"/>
</svg>
