<svg width="30" height="29" viewBox="0 0 30 29" fill="none" xmlns="http://www.w3.org/2000/svg">
<path d="M0.626739 26.933L8.94726 18.5997C7.30693 16.6309 6.32035 14.1149 6.32035 11.3668C6.32035 5.09753 11.4613 0 17.7848 0C24.1084 0 29.2612 5.10348 29.2612 11.3728C29.2612 17.6421 24.1203 22.7396 17.7967 22.7396C15.1104 22.7396 12.638 21.8177 10.6767 20.2771L2.3265 28.6342C1.83916 29.1219 1.11408 29.1219 0.626739 28.6342C0.139394 28.1464 0.139394 27.4208 0.626739 26.933ZM26.8245 11.3728C26.8245 6.44775 22.7712 2.44467 17.7967 2.44467C12.8223 2.44467 8.76897 6.44775 8.76897 11.3728C8.76897 16.2978 12.8223 20.3009 17.7967 20.3009C22.7712 20.3009 26.8245 16.2919 26.8245 11.3728Z" fill="#0C8CE9"/>
</svg>
