<svg width="28" height="29" viewBox="0 0 28 29" fill="none" xmlns="http://www.w3.org/2000/svg">
<path d="M18.0574 18.3749C19.6616 18.3749 20.9622 19.6754 20.9622 21.2797V22.0229C20.9622 23.1781 20.5494 24.2951 19.7982 25.1727C17.7711 27.5409 14.6877 28.7097 10.6249 28.7097C6.5615 28.7097 3.47956 27.5405 1.45642 25.1713C0.707562 24.2944 0.296143 23.179 0.296143 22.0259V21.2797C0.296143 19.6754 1.59667 18.3749 3.20094 18.3749H18.0574ZM18.0574 20.3124H3.20094C2.66672 20.3124 2.23364 20.7455 2.23364 21.2797V22.0259C2.23364 22.7178 2.48049 23.387 2.92981 23.9131C4.54867 25.8089 7.08793 26.7722 10.6249 26.7722C14.1619 26.7722 16.7034 25.8089 18.3263 23.9128C18.777 23.3863 19.0247 22.716 19.0247 22.0229V21.2797C19.0247 20.7455 18.5916 20.3124 18.0574 20.3124ZM23.6113 0.81294C24.0758 0.547482 24.6676 0.708859 24.933 1.17339C26.3417 3.6385 27.0936 6.43231 27.0936 9.33333C27.0936 12.2441 26.3366 15.0469 24.9189 17.5179C24.6527 17.982 24.0606 18.1424 23.5965 17.8761C23.1325 17.6098 22.9721 17.0178 23.2384 16.5537C24.4888 14.3743 25.1561 11.9036 25.1561 9.33333C25.1561 6.77174 24.4933 4.30894 23.2508 2.13469C22.9854 1.67017 23.1467 1.0784 23.6113 0.81294ZM10.6249 2.88097C14.1917 2.88097 17.0832 5.77247 17.0832 9.33931C17.0832 12.9061 14.1917 15.7976 10.6249 15.7976C7.05806 15.7976 4.16657 12.9061 4.16657 9.33931C4.16657 5.77247 7.05806 2.88097 10.6249 2.88097ZM19.135 3.39093C19.6001 3.12647 20.1916 3.28912 20.456 3.75421C21.4152 5.44106 21.927 7.3511 21.927 9.33333C21.927 11.3201 21.4128 13.2343 20.4495 14.9239C20.1845 15.3887 19.5929 15.5506 19.1281 15.2856C18.6633 15.0206 18.5014 14.429 18.7664 13.9642C19.5641 12.5651 19.9895 10.9813 19.9895 9.33333C19.9895 7.6891 19.566 6.10875 18.7718 4.71191C18.5073 4.24681 18.67 3.65539 19.135 3.39093ZM10.6249 4.81847C8.12811 4.81847 6.10407 6.84252 6.10407 9.33931C6.10407 11.8361 8.12811 13.8601 10.6249 13.8601C13.1217 13.8601 15.1457 11.8361 15.1457 9.33931C15.1457 6.84252 13.1217 4.81847 10.6249 4.81847Z" fill="#0C8CE9"/>
</svg>
